<?xml version="1.0" encoding="UTF-8" standalone="no"?>
<!DOCTYPE svg PUBLIC "-//W3C//DTD SVG 1.1//EN"
 "http://www.w3.org/Graphics/SVG/1.1/DTD/svg11.dtd">
<!-- Generated by graphviz version 2.38.0 (20140413.2041)
 -->
<!-- Title: %3 Pages: 1 -->
<svg width="989pt" height="938pt"
 viewBox="0.00 0.00 989.00 938.00" xmlns="http://www.w3.org/2000/svg" xmlns:xlink="http://www.w3.org/1999/xlink">
<g id="graph0" class="graph" transform="scale(1 1) rotate(0) translate(4 934)">
<title>%3</title>
<polygon fill="white" stroke="none" points="-4,4 -4,-934 985,-934 985,4 -4,4"/>
<!-- problemExists -->
<g id="node1" class="node"><title>problemExists</title>
<path fill="none" stroke="blue" d="M472.5,-930C472.5,-930 386.5,-930 386.5,-930 380.5,-930 374.5,-924 374.5,-918 374.5,-918 374.5,-906 374.5,-906 374.5,-900 380.5,-894 386.5,-894 386.5,-894 472.5,-894 472.5,-894 478.5,-894 484.5,-900 484.5,-906 484.5,-906 484.5,-918 484.5,-918 484.5,-924 478.5,-930 472.5,-930"/>
<text text-anchor="middle" x="429.5" y="-909.5" font-family="Bitstream Vera Sans" font-size="10.00">is there a problem?</text>
</g>
<!-- fixIt -->
<g id="node2" class="node"><title>fixIt</title>
<path fill="none" stroke="blue" d="M338.5,-847C338.5,-847 280.5,-847 280.5,-847 274.5,-847 268.5,-841 268.5,-835 268.5,-835 268.5,-823 268.5,-823 268.5,-817 274.5,-811 280.5,-811 280.5,-811 338.5,-811 338.5,-811 344.5,-811 350.5,-817 350.5,-823 350.5,-823 350.5,-835 350.5,-835 350.5,-841 344.5,-847 338.5,-847"/>
<text text-anchor="middle" x="309.5" y="-826.5" font-family="Bitstream Vera Sans" font-size="10.00">can you fix it?</text>
</g>
<!-- problemExists&#45;&gt;fixIt -->
<g id="edge1" class="edge"><title>problemExists&#45;&gt;fixIt</title>
<path fill="none" stroke="black" d="M404.051,-893.822C386.391,-881.902 362.674,-865.892 343.411,-852.89"/>
<polygon fill="black" stroke="black" points="345.159,-849.847 334.912,-847.153 341.243,-855.649 345.159,-849.847"/>
<text text-anchor="middle" x="385" y="-868" font-family="Bitstream Vera Sans" font-size="10.00">oui</text>
</g>
<!-- inventIt -->
<g id="node3" class="node"><title>inventIt</title>
<path fill="none" stroke="blue" d="M585,-847C585,-847 516,-847 516,-847 510,-847 504,-841 504,-835 504,-835 504,-823 504,-823 504,-817 510,-811 516,-811 516,-811 585,-811 585,-811 591,-811 597,-817 597,-823 597,-823 597,-835 597,-835 597,-841 591,-847 585,-847"/>
<text text-anchor="middle" x="550.5" y="-826.5" font-family="Bitstream Vera Sans" font-size="10.00">what&#39;s your job?</text>
</g>
<!-- problemExists&#45;&gt;inventIt -->
<g id="edge2" class="edge"><title>problemExists&#45;&gt;inventIt</title>
<path fill="none" stroke="black" d="M455.161,-893.822C472.968,-881.902 496.883,-865.892 516.306,-852.89"/>
<polygon fill="black" stroke="black" points="518.513,-855.625 524.876,-847.153 514.619,-849.808 518.513,-855.625"/>
<text text-anchor="middle" x="507" y="-868" font-family="Bitstream Vera Sans" font-size="10.00">non</text>
</g>
<!-- happyEnd -->
<g id="node4" class="node"><title>happyEnd</title>
<polygon fill="none" stroke="black" points="153,-764 0,-764 0,-723 153,-723 153,-764"/>
<text text-anchor="middle" x="76.5" y="-752" font-family="Bitstream Vera Sans" font-size="10.00">then why are you wasting</text>
<text text-anchor="middle" x="76.5" y="-741" font-family="Bitstream Vera Sans" font-size="10.00">Your time reading this chart?</text>
<text text-anchor="middle" x="76.5" y="-730" font-family="Bitstream Vera Sans" font-size="10.00">go fix it!</text>
</g>
<!-- fixIt&#45;&gt;happyEnd -->
<g id="edge3" class="edge"><title>fixIt&#45;&gt;happyEnd</title>
<path fill="none" stroke="black" d="M268.365,-821.685C237.883,-816.21 195.704,-806.945 160.5,-793 144.832,-786.793 128.577,-778.027 114.588,-769.652"/>
<polygon fill="black" stroke="black" points="116.106,-766.477 105.751,-764.235 112.448,-772.445 116.106,-766.477"/>
<text text-anchor="middle" x="168" y="-785" font-family="Bitstream Vera Sans" font-size="10.00">oui</text>
</g>
<!-- wayOut -->
<g id="node5" class="node"><title>wayOut</title>
<path fill="none" stroke="blue" d="M344,-761.5C344,-761.5 275,-761.5 275,-761.5 269,-761.5 263,-755.5 263,-749.5 263,-749.5 263,-737.5 263,-737.5 263,-731.5 269,-725.5 275,-725.5 275,-725.5 344,-725.5 344,-725.5 350,-725.5 356,-731.5 356,-737.5 356,-737.5 356,-749.5 356,-749.5 356,-755.5 350,-761.5 344,-761.5"/>
<text text-anchor="middle" x="309.5" y="-741" font-family="Bitstream Vera Sans" font-size="10.00">what&#39;s your job?</text>
</g>
<!-- fixIt&#45;&gt;wayOut -->
<g id="edge4" class="edge"><title>fixIt&#45;&gt;wayOut</title>
<path fill="none" stroke="black" d="M309.5,-810.699C309.5,-799.503 309.5,-784.685 309.5,-771.908"/>
<polygon fill="black" stroke="black" points="313,-771.779 309.5,-761.779 306,-771.779 313,-771.779"/>
<text text-anchor="middle" x="319" y="-785" font-family="Bitstream Vera Sans" font-size="10.00">non</text>
</g>
<!-- setupMeeting -->
<g id="node8" class="node"><title>setupMeeting</title>
<polygon fill="none" stroke="black" points="635.5,-761.5 465.5,-761.5 465.5,-725.5 635.5,-725.5 635.5,-761.5"/>
<text text-anchor="middle" x="550.5" y="-741" font-family="Bitstream Vera Sans" font-size="10.00">setup a meeting and go inovate</text>
</g>
<!-- inventIt&#45;&gt;setupMeeting -->
<g id="edge10" class="edge"><title>inventIt&#45;&gt;setupMeeting</title>
<path fill="none" stroke="black" d="M550.5,-810.699C550.5,-799.503 550.5,-784.685 550.5,-771.908"/>
<polygon fill="black" stroke="black" points="554,-771.779 550.5,-761.779 547,-771.779 554,-771.779"/>
<text text-anchor="middle" x="577" y="-785" font-family="Bitstream Vera Sans" font-size="10.00">a manager</text>
</g>
<!-- timeToMonitor -->
<g id="node9" class="node"><title>timeToMonitor</title>
<polygon fill="none" stroke="black" points="981,-761.5 654,-761.5 654,-725.5 981,-725.5 981,-761.5"/>
<text text-anchor="middle" x="817.5" y="-741" font-family="Bitstream Vera Sans" font-size="10.00">ruin your network performance using node.js to run some probes</text>
</g>
<!-- inventIt&#45;&gt;timeToMonitor -->
<g id="edge11" class="edge"><title>inventIt&#45;&gt;timeToMonitor</title>
<path fill="none" stroke="black" d="M593.828,-810.909C617.727,-801.773 648.043,-790.656 675.5,-782 695.562,-775.675 717.441,-769.532 737.882,-764.111"/>
<polygon fill="black" stroke="black" points="739.004,-767.435 747.787,-761.51 737.226,-760.664 739.004,-767.435"/>
<text text-anchor="middle" x="731.5" y="-785" font-family="Bitstream Vera Sans" font-size="10.00">a system administrator</text>
</g>
<!-- happyEnd&#45;&gt;problemExists -->
<g id="edge5" class="edge"><title>happyEnd&#45;&gt;problemExists</title>
<path fill="none" stroke="black" d="M98.0968,-764.026C108.924,-773.346 122.477,-784.328 135.5,-793 207.742,-841.105 302.637,-874.742 364.805,-893.469"/>
<polygon fill="black" stroke="black" points="363.911,-896.854 374.493,-896.346 365.904,-890.144 363.911,-896.854"/>
<text text-anchor="middle" x="244.5" y="-826.5" font-family="Bitstream Vera Sans" font-size="10.00">then</text>
</g>
<!-- blameSysop -->
<g id="node6" class="node"><title>blameSysop</title>
<polygon fill="none" stroke="black" points="462.5,-673.5 332.5,-673.5 332.5,-637.5 462.5,-637.5 462.5,-673.5"/>
<text text-anchor="middle" x="397.5" y="-658.5" font-family="Bitstream Vera Sans" font-size="10.00">blame your sysop team</text>
<text text-anchor="middle" x="397.5" y="-647.5" font-family="Bitstream Vera Sans" font-size="10.00">for incompetence</text>
</g>
<!-- wayOut&#45;&gt;blameSysop -->
<g id="edge6" class="edge"><title>wayOut&#45;&gt;blameSysop</title>
<path fill="none" stroke="black" d="M326.674,-725.38C336.048,-716.067 347.876,-704.364 358.5,-694 362.893,-689.714 367.585,-685.173 372.136,-680.786"/>
<polygon fill="black" stroke="black" points="374.804,-683.076 379.586,-673.621 369.952,-678.03 374.804,-683.076"/>
<text text-anchor="middle" x="385" y="-697" font-family="Bitstream Vera Sans" font-size="10.00">a manager</text>
</g>
<!-- blameManager -->
<g id="node7" class="node"><title>blameManager</title>
<polygon fill="none" stroke="black" points="307.5,-676 79.5,-676 79.5,-635 307.5,-635 307.5,-676"/>
<text text-anchor="middle" x="193.5" y="-664" font-family="Bitstream Vera Sans" font-size="10.00">blame your management</text>
<text text-anchor="middle" x="193.5" y="-653" font-family="Bitstream Vera Sans" font-size="10.00">to not did the investments</text>
<text text-anchor="middle" x="193.5" y="-642" font-family="Bitstream Vera Sans" font-size="10.00">you ask (including your obscene duty prime)</text>
</g>
<!-- wayOut&#45;&gt;blameManager -->
<g id="edge7" class="edge"><title>wayOut&#45;&gt;blameManager</title>
<path fill="none" stroke="black" d="M265.955,-725.403C254.466,-719.823 242.496,-712.975 232.5,-705 225.215,-699.188 218.412,-691.787 212.593,-684.528"/>
<polygon fill="black" stroke="black" points="215.082,-682.018 206.244,-676.174 209.509,-686.254 215.082,-682.018"/>
<text text-anchor="middle" x="288.5" y="-697" font-family="Bitstream Vera Sans" font-size="10.00">a system administrator</text>
</g>
<!-- blameSysop&#45;&gt;fixIt -->
<g id="edge8" class="edge"><title>blameSysop&#45;&gt;fixIt</title>
<path fill="none" stroke="black" d="M407.689,-673.704C411.914,-683.042 415.087,-694.742 411.5,-705 397.456,-745.171 363.619,-781.364 338.752,-803.922"/>
<polygon fill="black" stroke="black" points="336.199,-801.507 331.03,-810.755 340.838,-806.75 336.199,-801.507"/>
<text text-anchor="middle" x="414.5" y="-741" font-family="Bitstream Vera Sans" font-size="10.00">then</text>
</g>
<!-- blameManager&#45;&gt;fixIt -->
<g id="edge9" class="edge"><title>blameManager&#45;&gt;fixIt</title>
<path fill="none" stroke="black" d="M197.114,-676.224C202.005,-698.987 212.402,-736.775 231.5,-764 242.6,-779.823 258.623,-793.897 273.262,-804.788"/>
<polygon fill="black" stroke="black" points="271.508,-807.838 281.674,-810.823 275.588,-802.15 271.508,-807.838"/>
<text text-anchor="middle" x="242.5" y="-741" font-family="Bitstream Vera Sans" font-size="10.00">then</text>
</g>
<!-- beBrilliant -->
<g id="node10" class="node"><title>beBrilliant</title>
<path fill="none" stroke="blue" d="M604,-673.5C604,-673.5 497,-673.5 497,-673.5 491,-673.5 485,-667.5 485,-661.5 485,-661.5 485,-649.5 485,-649.5 485,-643.5 491,-637.5 497,-637.5 497,-637.5 604,-637.5 604,-637.5 610,-637.5 616,-643.5 616,-649.5 616,-649.5 616,-661.5 616,-661.5 616,-667.5 610,-673.5 604,-673.5"/>
<text text-anchor="middle" x="550.5" y="-653" font-family="Bitstream Vera Sans" font-size="10.00">is there a problem now?</text>
</g>
<!-- setupMeeting&#45;&gt;beBrilliant -->
<g id="edge13" class="edge"><title>setupMeeting&#45;&gt;beBrilliant</title>
<path fill="none" stroke="black" d="M550.5,-725.097C550.5,-713.246 550.5,-697.317 550.5,-683.792"/>
<polygon fill="black" stroke="black" points="554,-683.584 550.5,-673.584 547,-683.584 554,-683.584"/>
<text text-anchor="middle" x="612.5" y="-697" font-family="Bitstream Vera Sans" font-size="10.00">at the end of the meeting</text>
</g>
<!-- timeToMonitor&#45;&gt;problemExists -->
<g id="edge12" class="edge"><title>timeToMonitor&#45;&gt;problemExists</title>
<path fill="none" stroke="black" d="M810.427,-761.919C805.418,-772.267 797.763,-784.909 787.5,-793 700.446,-861.632 571.851,-891.103 494.806,-903.187"/>
<polygon fill="black" stroke="black" points="494.111,-899.753 484.749,-904.712 495.16,-906.674 494.111,-899.753"/>
<text text-anchor="middle" x="790" y="-826.5" font-family="Bitstream Vera Sans" font-size="10.00">time passes</text>
</g>
<!-- setupTaskForce -->
<g id="node11" class="node"><title>setupTaskForce</title>
<path fill="none" stroke="blue" d="M607,-588C607,-588 494,-588 494,-588 488,-588 482,-582 482,-576 482,-576 482,-564 482,-564 482,-558 488,-552 494,-552 494,-552 607,-552 607,-552 613,-552 619,-558 619,-564 619,-564 619,-576 619,-576 619,-582 613,-588 607,-588"/>
<text text-anchor="middle" x="550.5" y="-567.5" font-family="Bitstream Vera Sans" font-size="10.00">does a Task Force exists?</text>
</g>
<!-- beBrilliant&#45;&gt;setupTaskForce -->
<g id="edge14" class="edge"><title>beBrilliant&#45;&gt;setupTaskForce</title>
<path fill="none" stroke="black" d="M538.749,-637.3C533.889,-628.164 529.922,-616.65 532.5,-606 533.193,-603.136 534.164,-600.244 535.298,-597.414"/>
<polygon fill="black" stroke="black" points="538.558,-598.707 539.624,-588.166 532.217,-595.741 538.558,-598.707"/>
<text text-anchor="middle" x="540" y="-609" font-family="Bitstream Vera Sans" font-size="10.00">oui</text>
</g>
<!-- beBrilliant&#45;&gt;setupTaskForce -->
<g id="edge15" class="edge"><title>beBrilliant&#45;&gt;setupTaskForce</title>
<path fill="none" stroke="black" d="M550.5,-637.199C550.5,-626.003 550.5,-611.185 550.5,-598.408"/>
<polygon fill="black" stroke="black" points="554,-598.279 550.5,-588.279 547,-598.279 554,-598.279"/>
<text text-anchor="middle" x="560" y="-609" font-family="Bitstream Vera Sans" font-size="10.00">non</text>
</g>
<!-- spotManager -->
<g id="node12" class="node"><title>spotManager</title>
<path fill="none" stroke="blue" d="M580,-406C580,-406 297,-406 297,-406 291,-406 285,-400 285,-394 285,-394 285,-382 285,-382 285,-376 291,-370 297,-370 297,-370 580,-370 580,-370 586,-370 592,-376 592,-382 592,-382 592,-394 592,-394 592,-400 586,-406 580,-406"/>
<text text-anchor="middle" x="438.5" y="-385.5" font-family="Bitstream Vera Sans" font-size="10.00">do you know someone currently useless to mangage the TF?</text>
</g>
<!-- setupTaskForce&#45;&gt;spotManager -->
<g id="edge16" class="edge"><title>setupTaskForce&#45;&gt;spotManager</title>
<path fill="none" stroke="black" d="M550.1,-551.846C548.789,-527.878 543.579,-483.846 523.5,-453 512.616,-436.28 495.787,-422.277 479.967,-411.674"/>
<polygon fill="black" stroke="black" points="481.634,-408.586 471.325,-406.138 477.857,-414.48 481.634,-408.586"/>
<text text-anchor="middle" x="552" y="-476.5" font-family="Bitstream Vera Sans" font-size="10.00">oui</text>
</g>
<!-- createTaskForce -->
<g id="node13" class="node"><title>createTaskForce</title>
<polygon fill="none" stroke="black" points="514.5,-505 362.5,-505 362.5,-453 514.5,-453 514.5,-505"/>
<text text-anchor="middle" x="438.5" y="-493" font-family="Bitstream Vera Sans" font-size="10.00">create a Task Force</text>
<text text-anchor="middle" x="438.5" y="-482" font-family="Bitstream Vera Sans" font-size="10.00">with people who already had</text>
<text text-anchor="middle" x="438.5" y="-471" font-family="Bitstream Vera Sans" font-size="10.00">too much work to do</text>
<text text-anchor="middle" x="438.5" y="-460" font-family="Bitstream Vera Sans" font-size="10.00">fixing the problems</text>
</g>
<!-- setupTaskForce&#45;&gt;createTaskForce -->
<g id="edge17" class="edge"><title>setupTaskForce&#45;&gt;createTaskForce</title>
<path fill="none" stroke="black" d="M528.905,-551.84C514.593,-540.467 495.385,-525.204 478.356,-511.671"/>
<polygon fill="black" stroke="black" points="480.208,-508.673 470.202,-505.191 475.853,-514.153 480.208,-508.673"/>
<text text-anchor="middle" x="515" y="-526" font-family="Bitstream Vera Sans" font-size="10.00">non</text>
</g>
<!-- promoteManager -->
<g id="node14" class="node"><title>promoteManager</title>
<polygon fill="none" stroke="black" points="573,-323 304,-323 304,-287 573,-287 573,-323"/>
<text text-anchor="middle" x="438.5" y="-302.5" font-family="Bitstream Vera Sans" font-size="10.00">promote him as TF leader and let those experts work</text>
</g>
<!-- spotManager&#45;&gt;promoteManager -->
<g id="edge19" class="edge"><title>spotManager&#45;&gt;promoteManager</title>
<path fill="none" stroke="black" d="M438.5,-369.822C438.5,-359.19 438.5,-345.306 438.5,-333.204"/>
<polygon fill="black" stroke="black" points="442,-333.153 438.5,-323.153 435,-333.153 442,-333.153"/>
<text text-anchor="middle" x="447" y="-344" font-family="Bitstream Vera Sans" font-size="10.00">yes</text>
</g>
<!-- createTaskForce&#45;&gt;spotManager -->
<g id="edge18" class="edge"><title>createTaskForce&#45;&gt;spotManager</title>
<path fill="none" stroke="black" d="M438.5,-452.734C438.5,-441.324 438.5,-427.824 438.5,-416.193"/>
<polygon fill="black" stroke="black" points="442,-416.15 438.5,-406.15 435,-416.15 442,-416.15"/>
<text text-anchor="middle" x="449.5" y="-427" font-family="Bitstream Vera Sans" font-size="10.00">then</text>
</g>
<!-- milestoneMeeting -->
<g id="node15" class="node"><title>milestoneMeeting</title>
<path fill="none" stroke="blue" d="M498,-240C498,-240 379,-240 379,-240 373,-240 367,-234 367,-228 367,-228 367,-216 367,-216 367,-210 373,-204 379,-204 379,-204 498,-204 498,-204 504,-204 510,-210 510,-216 510,-216 510,-228 510,-228 510,-234 504,-240 498,-240"/>
<text text-anchor="middle" x="438.5" y="-219.5" font-family="Bitstream Vera Sans" font-size="10.00">did it changed something?</text>
</g>
<!-- promoteManager&#45;&gt;milestoneMeeting -->
<g id="edge20" class="edge"><title>promoteManager&#45;&gt;milestoneMeeting</title>
<path fill="none" stroke="black" d="M438.5,-286.822C438.5,-276.19 438.5,-262.306 438.5,-250.204"/>
<polygon fill="black" stroke="black" points="442,-250.153 438.5,-240.153 435,-250.153 442,-250.153"/>
<text text-anchor="middle" x="484" y="-261" font-family="Bitstream Vera Sans" font-size="10.00">milestone meeting</text>
</g>
<!-- coverShit -->
<g id="node16" class="node"><title>coverShit</title>
<path fill="none" stroke="blue" d="M499,-157C499,-157 378,-157 378,-157 372,-157 366,-151 366,-145 366,-145 366,-133 366,-133 366,-127 372,-121 378,-121 378,-121 499,-121 499,-121 505,-121 511,-127 511,-133 511,-133 511,-145 511,-145 511,-151 505,-157 499,-157"/>
<text text-anchor="middle" x="438.5" y="-136.5" font-family="Bitstream Vera Sans" font-size="10.00">can you hide the hole shit?</text>
</g>
<!-- milestoneMeeting&#45;&gt;coverShit -->
<g id="edge21" class="edge"><title>milestoneMeeting&#45;&gt;coverShit</title>
<path fill="none" stroke="black" d="M438.5,-203.822C438.5,-193.19 438.5,-179.306 438.5,-167.204"/>
<polygon fill="black" stroke="black" points="442,-167.153 438.5,-157.153 435,-167.153 442,-167.153"/>
<text text-anchor="middle" x="446.5" y="-178" font-family="Bitstream Vera Sans" font-size="10.00">NO</text>
</g>
<!-- primeTime -->
<g id="node17" class="node"><title>primeTime</title>
<polygon fill="none" stroke="black" points="486,-55 289,-55 289,-19 486,-19 486,-55"/>
<text text-anchor="middle" x="387.5" y="-40" font-family="Bitstream Vera Sans" font-size="10.00">give everyone a prime and ask the</text>
<text text-anchor="middle" x="387.5" y="-29" font-family="Bitstream Vera Sans" font-size="10.00">sysop to make all the traces disapear</text>
</g>
<!-- coverShit&#45;&gt;primeTime -->
<g id="edge22" class="edge"><title>coverShit&#45;&gt;primeTime</title>
<path fill="none" stroke="black" d="M429.616,-120.581C421.718,-105.095 410.053,-82.2223 401.001,-64.4732"/>
<polygon fill="black" stroke="black" points="403.943,-62.5373 396.282,-55.2191 397.707,-65.7176 403.943,-62.5373"/>
<text text-anchor="middle" x="429" y="-95" font-family="Bitstream Vera Sans" font-size="10.00">oui</text>
</g>
<!-- pleaseBitch -->
<g id="node18" class="node"><title>pleaseBitch</title>
<polygon fill="none" stroke="black" points="734.5,-74 504.5,-74 504.5,-0 734.5,-0 734.5,-74"/>
<text text-anchor="middle" x="619.5" y="-62" font-family="Bitstream Vera Sans" font-size="10.00">it&#39;s not your fault and you know it:</text>
<text text-anchor="middle" x="619.5" y="-51" font-family="Bitstream Vera Sans" font-size="10.00">fire some sysops and write a memo</text>
<text text-anchor="middle" x="619.5" y="-40" font-family="Bitstream Vera Sans" font-size="10.00">about the failure of the middle management</text>
<text text-anchor="middle" x="619.5" y="-29" font-family="Bitstream Vera Sans" font-size="10.00">then go inovate to have something shiny</text>
<text text-anchor="middle" x="619.5" y="-18" font-family="Bitstream Vera Sans" font-size="10.00">to cell to the board</text>
<text text-anchor="middle" x="619.5" y="-7" font-family="Bitstream Vera Sans" font-size="10.00">and move on!</text>
</g>
<!-- coverShit&#45;&gt;pleaseBitch -->
<g id="edge23" class="edge"><title>coverShit&#45;&gt;pleaseBitch</title>
<path fill="none" stroke="black" d="M469.615,-120.809C490.501,-109.27 518.943,-93.5564 545.439,-78.9175"/>
<polygon fill="black" stroke="black" points="547.276,-81.9013 554.337,-74.0018 543.891,-75.7742 547.276,-81.9013"/>
<text text-anchor="middle" x="528" y="-95" font-family="Bitstream Vera Sans" font-size="10.00">non</text>
</g>
<!-- pleaseBitch&#45;&gt;setupTaskForce -->
<g id="edge24" class="edge"><title>pleaseBitch&#45;&gt;setupTaskForce</title>
<path fill="none" stroke="black" d="M619.5,-74.1035C619.5,-93.1154 619.5,-116.819 619.5,-138 619.5,-480 619.5,-480 619.5,-480 619.5,-505.94 600.966,-528.899 583.109,-544.998"/>
<polygon fill="black" stroke="black" points="580.357,-542.745 575.021,-551.898 584.9,-548.07 580.357,-542.745"/>
</g>
</g>
</svg>
