<?xml version="1.0" encoding="UTF-8" standalone="no"?>
<!DOCTYPE svg PUBLIC "-//W3C//DTD SVG 1.1//EN"
 "http://www.w3.org/Graphics/SVG/1.1/DTD/svg11.dtd">
<!-- Generated by graphviz version 2.38.0 (20140413.2041)
 -->
<!-- Title: %3 Pages: 1 -->
<svg width="546pt" height="464pt"
 viewBox="0.00 0.00 545.50 464.00" xmlns="http://www.w3.org/2000/svg" xmlns:xlink="http://www.w3.org/1999/xlink">
<g id="graph0" class="graph" transform="scale(1 1) rotate(0) translate(4 460)">
<title>%3</title>
<polygon fill="white" stroke="none" points="-4,4 -4,-460 541.5,-460 541.5,4 -4,4"/>
<text text-anchor="middle" x="68.5" y="-440.8" font-family="Times,serif" font-size="14.00">should i use fl4chart ?</text>
<!-- doINeedIt -->
<g id="node1" class="node"><title>doINeedIt</title>
<path fill="none" stroke="blue" d="M447,-433C447,-433 350,-433 350,-433 344,-433 338,-427 338,-421 338,-421 338,-409 338,-409 338,-403 344,-397 350,-397 350,-397 447,-397 447,-397 453,-397 459,-403 459,-409 459,-409 459,-421 459,-421 459,-427 453,-433 447,-433"/>
<text text-anchor="middle" x="398.5" y="-412.5" font-family="Bitstream Vera Sans" font-size="10.00">do i need a flowchart?</text>
</g>
<!-- iAmNewbie -->
<g id="node2" class="node"><title>iAmNewbie</title>
<path fill="none" stroke="blue" d="M331.5,-350C331.5,-350 161.5,-350 161.5,-350 155.5,-350 149.5,-344 149.5,-338 149.5,-338 149.5,-326 149.5,-326 149.5,-320 155.5,-314 161.5,-314 161.5,-314 331.5,-314 331.5,-314 337.5,-314 343.5,-320 343.5,-326 343.5,-326 343.5,-338 343.5,-338 343.5,-344 337.5,-350 331.5,-350"/>
<text text-anchor="middle" x="246.5" y="-329.5" font-family="Bitstream Vera Sans" font-size="10.00">i have no idea what m4 or graphviz is</text>
</g>
<!-- doINeedIt&#45;&gt;iAmNewbie -->
<g id="edge1" class="edge"><title>doINeedIt&#45;&gt;iAmNewbie</title>
<path fill="none" stroke="black" d="M366.265,-396.822C343.315,-384.592 312.288,-368.058 287.565,-354.883"/>
<polygon fill="black" stroke="black" points="288.899,-351.628 278.428,-350.014 285.607,-357.806 288.899,-351.628"/>
<text text-anchor="middle" x="340" y="-371" font-family="Bitstream Vera Sans" font-size="10.00">oui</text>
</g>
<!-- noYouDont -->
<g id="node3" class="node"><title>noYouDont</title>
<polygon fill="none" stroke="black" points="537.5,-350 361.5,-350 361.5,-314 537.5,-314 537.5,-350"/>
<text text-anchor="middle" x="449.5" y="-329.5" font-family="Bitstream Vera Sans" font-size="10.00">you&#39;re loosing your time: go away</text>
</g>
<!-- doINeedIt&#45;&gt;noYouDont -->
<g id="edge2" class="edge"><title>doINeedIt&#45;&gt;noYouDont</title>
<path fill="none" stroke="black" d="M409.316,-396.822C416.28,-385.761 425.462,-371.179 433.29,-358.746"/>
<polygon fill="black" stroke="black" points="436.333,-360.48 438.7,-350.153 430.41,-356.751 436.333,-360.48"/>
<text text-anchor="middle" x="437" y="-371" font-family="Bitstream Vera Sans" font-size="10.00">non</text>
</g>
<!-- wannaLearn -->
<g id="node4" class="node"><title>wannaLearn</title>
<path fill="none" stroke="blue" d="M155,-124C155,-124 12,-124 12,-124 6,-124 1.42109e-14,-118 1.42109e-14,-112 1.42109e-14,-112 1.42109e-14,-100 1.42109e-14,-100 1.42109e-14,-94 6,-88 12,-88 12,-88 155,-88 155,-88 161,-88 167,-94 167,-100 167,-100 167,-112 167,-112 167,-118 161,-124 155,-124"/>
<text text-anchor="middle" x="83.5" y="-103.5" font-family="Bitstream Vera Sans" font-size="10.00">Am i ready to learn those stuff?</text>
</g>
<!-- iAmNewbie&#45;&gt;wannaLearn -->
<g id="edge3" class="edge"><title>iAmNewbie&#45;&gt;wannaLearn</title>
<path fill="none" stroke="black" d="M218.855,-313.982C201.619,-302.348 179.873,-285.689 164.5,-267 130.444,-225.597 105.556,-167.506 92.9102,-133.907"/>
<polygon fill="black" stroke="black" points="96.1181,-132.489 89.3821,-124.311 89.5481,-134.905 96.1181,-132.489"/>
<text text-anchor="middle" x="172" y="-216.5" font-family="Bitstream Vera Sans" font-size="10.00">oui</text>
</g>
<!-- unixLover -->
<g id="node5" class="node"><title>unixLover</title>
<path fill="none" stroke="blue" d="M292,-267C292,-267 201,-267 201,-267 195,-267 189,-261 189,-255 189,-255 189,-183 189,-183 189,-177 195,-171 201,-171 201,-171 292,-171 292,-171 298,-171 304,-177 304,-183 304,-183 304,-255 304,-255 304,-261 298,-267 292,-267"/>
<text text-anchor="middle" x="246.5" y="-255" font-family="Bitstream Vera Sans" font-size="10.00">not only i know m4</text>
<text text-anchor="middle" x="246.5" y="-244" font-family="Bitstream Vera Sans" font-size="10.00">and graphviz</text>
<text text-anchor="middle" x="246.5" y="-233" font-family="Bitstream Vera Sans" font-size="10.00">and make</text>
<text text-anchor="middle" x="246.5" y="-222" font-family="Bitstream Vera Sans" font-size="10.00">and gcc</text>
<text text-anchor="middle" x="246.5" y="-211" font-family="Bitstream Vera Sans" font-size="10.00">and fortran</text>
<text text-anchor="middle" x="246.5" y="-200" font-family="Bitstream Vera Sans" font-size="10.00">an perl</text>
<text text-anchor="middle" x="246.5" y="-189" font-family="Bitstream Vera Sans" font-size="10.00">and bourne shell</text>
<text text-anchor="middle" x="246.5" y="-178" font-family="Bitstream Vera Sans" font-size="10.00">but i also love them!</text>
</g>
<!-- iAmNewbie&#45;&gt;unixLover -->
<g id="edge4" class="edge"><title>iAmNewbie&#45;&gt;unixLover</title>
<path fill="none" stroke="black" d="M246.5,-313.656C246.5,-303.744 246.5,-290.685 246.5,-277.476"/>
<polygon fill="black" stroke="black" points="250,-277.396 246.5,-267.396 243,-277.396 250,-277.396"/>
<text text-anchor="middle" x="256" y="-288" font-family="Bitstream Vera Sans" font-size="10.00">non</text>
</g>
<!-- moveOn -->
<g id="node7" class="node"><title>moveOn</title>
<polygon fill="none" stroke="black" points="165,-41 2,-41 2,-0 165,-0 165,-41"/>
<text text-anchor="middle" x="83.5" y="-29" font-family="Bitstream Vera Sans" font-size="10.00">you should probably</text>
<text text-anchor="middle" x="83.5" y="-18" font-family="Bitstream Vera Sans" font-size="10.00">have a look on something else</text>
<text text-anchor="middle" x="83.5" y="-7" font-family="Bitstream Vera Sans" font-size="10.00">like dia or visio</text>
</g>
<!-- wannaLearn&#45;&gt;moveOn -->
<g id="edge8" class="edge"><title>wannaLearn&#45;&gt;moveOn</title>
<path fill="none" stroke="black" d="M83.5,-87.6987C83.5,-77.206 83.5,-63.5322 83.5,-51.338"/>
<polygon fill="black" stroke="black" points="87.0001,-51.1199 83.5,-41.1199 80.0001,-51.1199 87.0001,-51.1199"/>
<text text-anchor="middle" x="93" y="-62" font-family="Bitstream Vera Sans" font-size="10.00">non</text>
</g>
<!-- goBuyCopy -->
<g id="node8" class="node"><title>goBuyCopy</title>
<polygon fill="none" stroke="black" points="432.5,-41 240.5,-41 240.5,-0 432.5,-0 432.5,-41"/>
<text text-anchor="middle" x="336.5" y="-29" font-family="Bitstream Vera Sans" font-size="10.00">go to a book store and buy a</text>
<text text-anchor="middle" x="336.5" y="-18" font-family="Bitstream Vera Sans" font-size="10.00">copy of a unix book</text>
<text text-anchor="middle" x="336.5" y="-7" font-family="Bitstream Vera Sans" font-size="10.00">like we did back to the old good days</text>
</g>
<!-- wannaLearn&#45;&gt;goBuyCopy -->
<g id="edge7" class="edge"><title>wannaLearn&#45;&gt;goBuyCopy</title>
<path fill="none" stroke="black" d="M135.309,-87.901C173.533,-75.2855 225.933,-57.9916 267.673,-44.2156"/>
<polygon fill="black" stroke="black" points="268.822,-47.5221 277.221,-41.0643 266.628,-40.8748 268.822,-47.5221"/>
<text text-anchor="middle" x="226" y="-62" font-family="Bitstream Vera Sans" font-size="10.00">oui</text>
</g>
<!-- unixLover&#45;&gt;wannaLearn -->
<g id="edge6" class="edge"><title>unixLover&#45;&gt;wannaLearn</title>
<path fill="none" stroke="black" d="M188.981,-175.63C173.404,-164.466 156.438,-152.588 140.5,-142 134.249,-137.848 127.522,-133.561 120.957,-129.473"/>
<polygon fill="black" stroke="black" points="122.514,-126.322 112.165,-124.053 118.84,-132.28 122.514,-126.322"/>
<text text-anchor="middle" x="165" y="-145" font-family="Bitstream Vera Sans" font-size="10.00">non</text>
</g>
<!-- haveALook -->
<g id="node6" class="node"><title>haveALook</title>
<polygon fill="none" stroke="black" points="366,-124 185,-124 185,-88 366,-88 366,-124"/>
<text text-anchor="middle" x="275.5" y="-103.5" font-family="Bitstream Vera Sans" font-size="10.00">so go UTSL and read this example</text>
</g>
<!-- unixLover&#45;&gt;haveALook -->
<g id="edge5" class="edge"><title>unixLover&#45;&gt;haveALook</title>
<path fill="none" stroke="black" d="M258.799,-170.926C262.098,-158.299 265.552,-145.076 268.458,-133.954"/>
<polygon fill="black" stroke="black" points="271.911,-134.583 271.053,-124.023 265.138,-132.813 271.911,-134.583"/>
<text text-anchor="middle" x="274" y="-145" font-family="Bitstream Vera Sans" font-size="10.00">oui</text>
</g>
<!-- goBuyCopy&#45;&gt;iAmNewbie -->
<g id="edge9" class="edge"><title>goBuyCopy&#45;&gt;iAmNewbie</title>
<path fill="none" stroke="black" d="M351.439,-41.2515C360.033,-53.8856 369.995,-71.0358 374.5,-88 378.607,-103.464 377.75,-108.334 374.5,-124 360.429,-191.828 351.896,-210.021 312.5,-267 302.277,-281.786 288.275,-295.949 275.797,-307.176"/>
<polygon fill="black" stroke="black" points="273.49,-304.544 268.273,-313.765 278.101,-309.81 273.49,-304.544"/>
<text text-anchor="middle" x="402.5" y="-145" font-family="Bitstream Vera Sans" font-size="10.00">practice hard</text>
</g>
</g>
</svg>
